<svg xmlns="http://www.w3.org/2000/svg" viewBox="0 0 400 300" width="406" height="306" class="illustration styles_illustrationTablet__1DWOa"><g id="_519_analytics_process_flatline" data-name="#519_analytics_process_flatline"><path d="M236.7,102.76s10.91.51,26.86,13.91,21.78,22.64,21.78,22.64v-53s-20.25-23.47-47-32.4Z" fill="#e6e7e8"></path><path d="M285.34,139.81a.48.48,0,0,1-.42-.23c-.06-.09-6-9.35-21.68-22.53s-26.46-13.79-26.57-13.79a.51.51,0,0,1-.47-.52l1.59-48.81a.49.49,0,0,1,.22-.39.47.47,0,0,1,.44-.07c26.62,8.87,47.06,32.32,47.27,32.56a.47.47,0,0,1,.12.32v53a.5.5,0,0,1-.36.48ZM237.21,102.3c2.33.26,12.47,2,26.67,14,12.38,10.4,18.75,18.4,21,21.44V86.54c-1.71-1.93-21.09-23.33-46.07-31.91Z" fill="#231f20"></path><path d="M121.9,121.26V74.08A144.85,144.85,0,0,1,179,66.38v45.26S144.05,112.6,121.9,121.26Z" fill="#e6e7e8"></path><path d="M121.91,121.76a.6.6,0,0,1-.29-.08.53.53,0,0,1-.21-.42V74.08a.49.49,0,0,1,.31-.46,146.72,146.72,0,0,1,57.35-7.74.5.5,0,0,1,.46.5v45.25a.48.48,0,0,1-.48.5c-.35,0-35.15,1.07-57,9.6A.57.57,0,0,1,121.91,121.76Zm.5-47.33v46.11c20.57-7.82,51.85-9.23,56.12-9.39V66.85A146.15,146.15,0,0,0,122.41,74.43Z" fill="#231f20"></path><path d="M128.7,113.49a.47.47,0,0,1-.3-.1.48.48,0,0,1-.2-.4V79.46a.5.5,0,0,1,.5-.5.51.51,0,0,1,.5.5v32.85c4.53-1.42,30.12-9.2,39.67-7.22a.5.5,0,0,1-.2,1c-10-2.07-39.52,7.3-39.82,7.4Z" fill="#231f20"></path><path d="M100,147.49s-17,7.06-23.43,27.92V133.69S76.2,113.47,100,100.63Z" fill="#e6e7e8"></path><path d="M76.52,175.91h-.07a.49.49,0,0,1-.43-.49V133.69c0-.2,0-20.67,23.69-33.5a.52.52,0,0,1,.5,0,.5.5,0,0,1,.24.43v46.86a.5.5,0,0,1-.31.46A45.34,45.34,0,0,0,77,175.56.5.5,0,0,1,76.52,175.91Zm22.93-74.43C77,114,77,133.48,77,133.68V172.4a46.45,46.45,0,0,1,22.43-25.23Zm.5,46h0Z" fill="#231f20"></path><path d="M76.52,133.69s4.17,18.14,20.22,24.15v48.82S78.45,194,76.52,175.41Z" fill="#fff"></path><path d="M96.74,207.16a.47.47,0,0,1-.28-.09c-.19-.13-18.51-13-20.43-31.61V133.69a.5.5,0,0,1,1-.11c0,.17,4.31,17.95,19.91,23.8a.5.5,0,0,1,.32.46v48.82a.5.5,0,0,1-.27.44A.46.46,0,0,1,96.74,207.16ZM77,136.93v38.48c1.65,15.92,15.72,27.59,19.22,30.26V158.19C84.44,153.6,79,142.42,77,136.93Z" fill="#231f20"></path><path d="M292.47,172.9c-1.88.37-83.34,38-83.34,38s-31.88-11.63-32.62-11.26,80.3-33.41,80.3-33.41Z" fill="#fff"></path><path d="M209.13,211.39a.47.47,0,0,1-.17,0c-12.31-4.49-31.1-11.19-32.39-11.24v-.05c-.38.08-.42,0-.52-.23a.5.5,0,0,1,.24-.65l.06,0h0c1.1-.4,79.47-33.07,80.26-33.4a.48.48,0,0,1,.29,0l35.66,6.67a.52.52,0,0,1,.41.49.49.49,0,0,1-.4.49c-1.81.46-55.23,25-83.23,38A.52.52,0,0,1,209.13,211.39Zm-31-11.87c2.88.81,10.47,3.34,31,10.83,8.46-3.91,70.44-32.52,81.58-37.28l-33.83-6.33-40,16.67-27.6,11.49-9.1,3.78Z" fill="#231f20"></path><path d="M209.13,206.25l-.15,0-21.67-6.63a.49.49,0,0,1-.35-.45.51.51,0,0,1,.3-.49L248.54,173a.5.5,0,0,1,.63.21l6.38,11.26a.51.51,0,0,1,0,.4.45.45,0,0,1-.27.3l-46,21.09A.52.52,0,0,1,209.13,206.25Zm-20.21-7.2,20.18,6.17,45.31-20.78L248.52,174Z" fill="#d1d3d4"></path><path d="M174.62,43.67a17.74,17.74,0,0,0-7,3.34c-2,1.44-4,3.68-3.33,6,.27.89.9,1.91.34,2.65-.38.49-1.09.53-1.7.62a6.49,6.49,0,0,0-3.71,10.93A7.85,7.85,0,0,0,151.87,76,12.4,12.4,0,0,0,153,79.24c.83,1.73,1.83,3.54,1.54,5.43-2-.41-3.86,1.7-3.75,3.74a6.28,6.28,0,0,0,3.39,4.79c-2,.34-3.21,2.67-2.88,4.67a7.81,7.81,0,0,0,3.48,4.81,15.35,15.35,0,0,0,14,1.79,5.58,5.58,0,0,0,3.63,4.11,15.22,15.22,0,0,0,5.67.73c3.58,0,7.48-.32,10.13-2.73.6-.54,1.14-1.41.74-2.11-.49-.86-2.07-.87-2.16-1.85a13.73,13.73,0,0,0,7.4-2.74,6.7,6.7,0,0,0,2.93-4.57,4.45,4.45,0,0,0-1.83-3.85c1.49-1.31,3.14-3.21,2.35-5C197,85,195,84,195.42,82.55a7.14,7.14,0,0,0,2.15-11.71,7.13,7.13,0,0,0-.19-13.45,5.2,5.2,0,0,0-4.48-7.91,2.93,2.93,0,0,0-.91-3.95,6.08,6.08,0,0,0-4.36-.7c-2.48.36-4.16,1.06-6.4,0S177.12,43.2,174.62,43.67Z" fill="#fff"></path><path d="M177.6,109.81a14.48,14.48,0,0,1-5.38-.77,6.24,6.24,0,0,1-3.82-3.91,15.78,15.78,0,0,1-13.91-2A8.37,8.37,0,0,1,150.81,98a4.82,4.82,0,0,1,2.25-4.91,6.33,6.33,0,0,1-2.77-4.61A4.33,4.33,0,0,1,151.82,85a3.17,3.17,0,0,1,2.27-.88,9.44,9.44,0,0,0-1.31-4.18l-.23-.48a12.85,12.85,0,0,1-1.17-3.37,7.94,7.94,0,0,1,1.89-6.38,8.14,8.14,0,0,1,5-2.89,7,7,0,0,1,4.64-11l.2,0c.49-.07,1-.13,1.17-.41s.09-.82-.19-1.55c-.08-.22-.16-.43-.23-.65-.86-2.88,1.83-5.36,3.52-6.58a17.88,17.88,0,0,1,7.19-3.42h0c2.53-.47,4.45.09,6.91,1.23,1.63.74,2.95.5,4.64.18.47-.09.95-.18,1.47-.26a6.44,6.44,0,0,1,4.72.79,3.78,3.78,0,0,1,1.54,2.48A3,3,0,0,1,193.7,49a5.7,5.7,0,0,1,4.39,8.09A7.62,7.62,0,0,1,198.42,71a7.65,7.65,0,0,1-2.55,11.89c0,.52.38,1,1,1.71a6.11,6.11,0,0,1,1.19,1.62c.68,1.55,0,3.3-2,5.21a4.94,4.94,0,0,1,1.57,3.9,7.2,7.2,0,0,1-3.13,4.94,14.36,14.36,0,0,1-6.75,2.76l.35.17a2.77,2.77,0,0,1,1.3,1,2.3,2.3,0,0,1-.84,2.73c-2.72,2.47-6.64,2.83-10.47,2.86ZM168.77,104a.5.5,0,0,1,.5.43,5,5,0,0,0,3.31,3.71,14.76,14.76,0,0,0,5.48.7c3.63,0,7.33-.36,9.81-2.6.47-.43.88-1.08.64-1.5a2.08,2.08,0,0,0-.87-.6c-.57-.27-1.28-.62-1.36-1.44a.53.53,0,0,1,.12-.37.5.5,0,0,1,.35-.18,13.21,13.21,0,0,0,7.13-2.64c1-.73,2.59-2.24,2.73-4.21a3.92,3.92,0,0,0-1.62-3.4.49.49,0,0,1-.21-.38.48.48,0,0,1,.17-.4c2-1.75,2.75-3.25,2.22-4.46a5.65,5.65,0,0,0-1-1.35c-.72-.78-1.54-1.67-1.22-2.86a.5.5,0,0,1,.29-.33,6.64,6.64,0,0,0,2-10.89.52.52,0,0,1-.15-.47.52.52,0,0,1,.32-.36,6.63,6.63,0,0,0-.17-12.51.49.49,0,0,1-.31-.3.47.47,0,0,1,0-.43,4.71,4.71,0,0,0-4-7.15h0a.51.51,0,0,1-.45-.28.53.53,0,0,1,.05-.53,1.83,1.83,0,0,0,.32-1.42,2.81,2.81,0,0,0-1.12-1.81,5.47,5.47,0,0,0-4-.61c-.51.07-1,.16-1.43.24-1.79.34-3.33.63-5.25-.26-2.27-1.05-4-1.57-6.31-1.15a17.16,17.16,0,0,0-6.79,3.25c-1.18.86-3.85,3.11-3.14,5.49.06.19.13.38.21.58A2.5,2.5,0,0,1,165,56a2.54,2.54,0,0,1-1.82.79l-.2,0a6,6,0,0,0-3.42,10.09.49.49,0,0,1,.1.54.51.51,0,0,1-.46.3,7.36,7.36,0,0,0-6.87,8.18A12,12,0,0,0,153.45,79l.23.47c.81,1.66,1.65,3.38,1.36,5.25a.47.47,0,0,1-.21.33.49.49,0,0,1-.39.08,2.35,2.35,0,0,0-2,.59,3.37,3.37,0,0,0-1.18,2.63,5.72,5.72,0,0,0,3.14,4.38.5.5,0,0,1-.17.93c-1.75.3-2.74,2.41-2.46,4.1a7.36,7.36,0,0,0,3.27,4.48A14.74,14.74,0,0,0,168.59,104,.57.57,0,0,1,168.77,104Zm5.85-60.3h0Z" fill="#231f20"></path><path d="M201.8,106.53s28.77,37,30.48,37.21c0,0,30.37-4.27,32.26-7.26s4-2.16,4-2.16,1.86-3.6,4.2-4,9.66,4,5.4,6.85-42.06,26.66-47.19,27.2c-16.25,1.68-31.8-37.29-30-42.46Z" fill="#fff"></path><path d="M230,164.88c-4.84,0-10.06-3.38-15.18-9.85-8.86-11.19-15.53-29.29-14.31-33.25l.81-15.28a.49.49,0,0,1,.35-.45.5.5,0,0,1,.54.17c11.11,14.29,28.16,35.73,30.16,37,11.66-1.64,30.48-5,31.77-7,1.59-2.52,3.39-2.6,4.2-2.46.56-1,2.25-3.56,4.37-4,1.92-.37,6.12,1.9,7.08,4.27a2.7,2.7,0,0,1-1.31,3.48c-3.26,2.15-42,26.72-47.42,27.28A9.42,9.42,0,0,1,230,164.88Zm-27.75-57-.74,14a.31.31,0,0,1,0,.13c-1.1,3.16,5,20.88,14.12,32.38,3.68,4.64,9.33,10,15.35,9.42,4.89-.51,41.5-23.5,47-27.12,1-.65,1.29-1.4.93-2.28-.81-2-4.56-3.91-6-3.66-1.73.33-3.37,2.84-3.86,3.78a.49.49,0,0,1-.63.23c-.06,0-1.79-.62-3.42,2-2,3.1-29.49,7-32.62,7.48a.29.29,0,0,1-.13,0C230.55,144,211.32,119.57,202.23,107.89Zm-1.24,14h0Z" fill="#231f20"></path><path d="M180.48,96.55s-13-5.26-28.88,8.37C144.45,111,143,117.65,140,124.47c2.41,22.8,10.75,62.24,10.75,62.24h54.4s4.39-33.07,6-53c1-12.4-4.67-21.68-7.61-26.6C198.5,98.58,180.48,96.55,180.48,96.55Z" fill="#0410c6"></path><path d="M172,99.49c1,1.91,17.57,45.33,17.57,45.33V104.21Z" fill="#231f20"></path><path d="M189.58,145.32a.5.5,0,0,1-.47-.32c-.16-.43-16.58-43.42-17.55-45.28a.5.5,0,0,1,.58-.71l17.57,4.71a.5.5,0,0,1,.37.49v40.61a.49.49,0,0,1-.41.49Zm-16.7-45.07c2.36,5.72,12.9,33.24,16.2,41.86V104.59Z" fill="#231f20"></path><path d="M196.09,63.35l.82,2.76c.36,1.23,1.42,1.66,1.87,2.68s.29,3.23.35,4.48a31,31,0,0,1-.64,9.07,10.21,10.21,0,0,1-8.11,7.71L190,102.38s-.14,6.31-7.84,5.09a13.27,13.27,0,0,1-10.14-8l-.11-16c0-1.71-.68-4.92,0-6.54s3.63-2.62,4.93-4.15a11.89,11.89,0,0,0,2.86-7.22,7.47,7.47,0,0,0,6.89-3.88,6.76,6.76,0,0,0,9.36,1.06Z" fill="#fff"></path><path d="M184,108.13a12.45,12.45,0,0,1-2-.17,13.64,13.64,0,0,1-10.53-8.29.51.51,0,0,1,0-.17l-.11-16.06c0-.5-.07-1.16-.13-1.86-.17-1.7-.36-3.63.12-4.86.43-1.07,1.65-1.86,2.83-2.61a9.87,9.87,0,0,0,2.19-1.69,11.29,11.29,0,0,0,2.74-6.91.5.5,0,0,1,.16-.35.43.43,0,0,1,.37-.13,6.94,6.94,0,0,0,6.41-3.62.49.49,0,0,1,.41-.26.51.51,0,0,1,.44.2,6.27,6.27,0,0,0,8.64,1,.5.5,0,0,1,.47-.1.51.51,0,0,1,.33.34l.19.63h0l.82,2.76a3.38,3.38,0,0,0,.9,1.34,4.5,4.5,0,0,1,1,1.28,9.11,9.11,0,0,1,.38,3.54c0,.41,0,.79,0,1.12a31.18,31.18,0,0,1-.65,9.22,10.83,10.83,0,0,1-8.1,8l-.38,11.93a6.23,6.23,0,0,1-2.1,4.33A6.6,6.6,0,0,1,184,108.13ZM172.51,99.4a12.86,12.86,0,0,0,9.72,7.57c2.39.39,4.25,0,5.51-1a5.32,5.32,0,0,0,1.75-3.6L189.88,90a.52.52,0,0,1,.44-.49A9.64,9.64,0,0,0,198,82.22a30.11,30.11,0,0,0,.62-8.93c0-.34,0-.74,0-1.17a8.69,8.69,0,0,0-.29-3.12,3.79,3.79,0,0,0-.76-1,4.26,4.26,0,0,1-1.14-1.74l-.81-2.72a7.34,7.34,0,0,1-9-1A8.07,8.07,0,0,1,180.12,66a12.4,12.4,0,0,1-3,7A10.54,10.54,0,0,1,174.76,75c-1,.67-2.13,1.36-2.44,2.14a11.77,11.77,0,0,0-.06,4.39c.07.72.14,1.41.14,2Z" fill="#231f20"></path><path d="M176.18,77.11s-3.54-8.68-8-3.42,1.61,11.38,5.43,11" fill="#fff"></path><path d="M173.25,85.2c-2.29,0-5-1.84-6.33-4.37a6.37,6.37,0,0,1,.88-7.46c1.21-1.42,2.49-2,3.81-1.83,3,.48,4.95,5.18,5,5.38a.5.5,0,1,1-.92.38s-1.82-4.38-4.27-4.77c-.95-.15-1.92.35-2.89,1.49a5.41,5.41,0,0,0-.75,6.35c1.21,2.3,3.78,4,5.75,3.82a.5.5,0,0,1,.1,1A2.82,2.82,0,0,1,173.25,85.2Z" fill="#231f20"></path><path d="M192.3,82.53a10.49,10.49,0,0,1-2.61-.39.5.5,0,0,1,.29-1c.66.2,2.59.61,3.58.13.23-.5-1.31-3.49-3.34-6.35a.51.51,0,0,1,.12-.7.5.5,0,0,1,.7.12c.91,1.3,3.87,5.64,3.46,7.2a1,1,0,0,1-.5.63A4,4,0,0,1,192.3,82.53Z" fill="#231f20"></path><path d="M189.24,86.27a8.15,8.15,0,0,1-2.13-.28A9.14,9.14,0,0,1,182,82.25a.5.5,0,0,1,.27-.66.51.51,0,0,1,.65.27,8.23,8.23,0,0,0,4.63,3.2c2.41.6,4.93-.09,7.48-2a.5.5,0,0,1,.61.79A10.52,10.52,0,0,1,189.24,86.27Z" fill="#231f20"></path><path d="M190.38,90.05s-6.61.62-10.36-.47c0,0,3.82,9.85,10.08,10Z" fill="#231f20"></path><path d="M190.1,100.08h0c-6.52-.16-10.38-9.9-10.54-10.32a.48.48,0,0,1,.1-.51.52.52,0,0,1,.51-.15c3.61,1.05,10.11.46,10.18.45a.49.49,0,0,1,.38.14.45.45,0,0,1,.16.38l-.28,9.52A.5.5,0,0,1,190.1,100.08Zm-9.22-9.78c1.07,2.3,4.24,8.23,8.74,8.74l.25-8.45A37.56,37.56,0,0,1,180.88,90.3Z" fill="#231f20"></path><ellipse cx="186.37" cy="73.23" rx="0.97" ry="1.7" transform="matrix(1, -0.02, 0.02, 1, -1.6, 4.22)" fill="#231f20"></ellipse><ellipse cx="195.29" cy="73.03" rx="0.97" ry="1.7" transform="matrix(1, -0.02, 0.02, 1, -1.6, 4.42)" fill="#231f20"></ellipse><path d="M184,77.08c-2.91,0-3.06-.2-3.19-.36s-.38-.5-.47-5.85a.5.5,0,0,1,.48-.5c9.76-.48,10.06-.39,10.16-.36a.51.51,0,0,1,.35.51l-.4,5.93a.5.5,0,0,1-.48.46C187.4,77,185.35,77.08,184,77.08ZM181.56,76c.94.12,4.76.06,8.35-.08l.34-5c-1.45,0-5.85.21-8.95.36A45.7,45.7,0,0,0,181.56,76Z" fill="#231f20"></path><path d="M202.34,76.91h-9.22a.49.49,0,0,1-.5-.49l-.05-5.94a.5.5,0,0,1,.49-.5c9.45-.09,9.73,0,9.83,0a.51.51,0,0,1,.35.51l-.4,5.93A.49.49,0,0,1,202.34,76.91Zm-8.72-1h8.26l.33-5c-1.4,0-5.64,0-8.64,0Z" fill="#231f20"></path><path d="M193.07,73.53h-2.29a.5.5,0,0,1,0-1h2.29a.5.5,0,0,1,0,1Z" fill="#231f20"></path><path d="M163.05,133.69s-2.75,27.18-1.41,33.71l45.61,6.42s11.69-.46,17.32,1.55c3.45,1.23,9.71,6.62,8.58,8.31s-4.22,3.8-7,3-10.6-3.29-10.6-3.29,6.09,5.51,2.43,5.14-7.71-2.94-7.71-2.94-25.34,4.81-41.56,4c-20-1-28.51-5.74-30.77-17.57s.13-42.7,2.11-47.55" fill="#fff"></path><path d="M172.68,190.19c-1.39,0-2.74,0-4-.1-20.47-1.06-28.93-5.93-31.23-18s.19-43.06,2.14-47.84a.49.49,0,0,1,.65-.27.49.49,0,0,1,.27.65c-1.91,4.71-4.32,35.49-2.08,47.27,2.19,11.48,10.4,16.13,30.3,17.16,16,.82,41.2-3.91,41.45-4a.51.51,0,0,1,.36.07s4,2.5,7.49,2.86a1.15,1.15,0,0,0,.64,0c.11-.45-1.52-2.48-3.45-4.22a.5.5,0,0,1-.1-.63.5.5,0,0,1,.59-.22c.07,0,7.8,2.51,10.57,3.27,2.51.69,5.43-1.23,6.49-2.82a.73.73,0,0,0,0-.56c-.65-2-5.39-6-8.32-7-5.48-2-17-1.52-17.13-1.52l-45.7-6.42a.5.5,0,0,1-.42-.4c-1.34-6.53,1.29-32.75,1.4-33.86a.5.5,0,1,1,1,.1c0,.26-2.63,26.27-1.48,33.22l45.26,6.37c.39,0,11.76-.45,17.42,1.57,3,1.07,8.12,5.2,8.93,7.63a1.57,1.57,0,0,1-.1,1.42c-1.26,1.89-4.59,4.07-7.59,3.24-1.89-.53-6.07-1.84-8.58-2.64,1.26,1.33,2.54,3,2.13,3.9-.22.49-.77.69-1.63.6a21.26,21.26,0,0,1-7.75-2.9C208,186.55,187.85,190.19,172.68,190.19Z" fill="#231f20"></path><path d="M163.05,134.19H163a.51.51,0,0,1-.41-.58l3.57-19.84a.5.5,0,0,1,1,.18l-3.56,19.84A.51.51,0,0,1,163.05,134.19Z" fill="#231f20"></path><path d="M235.5,204.74V132.67s62.24-2.39,88-28.16V179S297.74,200,235.5,204.74Z" fill="#0410c6"></path><path d="M235.5,205.24a.53.53,0,0,1-.34-.13.52.52,0,0,1-.16-.37V132.67a.5.5,0,0,1,.48-.5c.62,0,62.34-2.68,87.64-28a.53.53,0,0,1,.55-.11.5.5,0,0,1,.31.47V179a.48.48,0,0,1-.19.39c-.25.21-26.57,21.16-88.25,25.89Zm.5-72.1V204.2c58.3-4.58,84.55-23.63,87-25.48v-73C298.13,129.36,241.8,132.85,236,133.14Z" fill="#231f20"></path><path d="M106.79,231.42V182s27.65,18.27,69,14.2v48.22S148.71,252.61,106.79,231.42Z" fill="#fff"></path><path d="M161.37,246.41c-12.12,0-31.18-2.6-54.81-14.54a.52.52,0,0,1-.27-.45V182a.51.51,0,0,1,.26-.44.49.49,0,0,1,.51,0c.28.18,28,18.13,68.67,14.12a.51.51,0,0,1,.38.12.52.52,0,0,1,.16.37v48.22a.5.5,0,0,1-.35.48C175.8,244.91,170.6,246.41,161.37,246.41Zm-54.08-15.29c38.53,19.38,64.67,13.73,68,12.89V196.72c-36.94,3.47-63.22-11-68-13.85Z" fill="#231f20"></path><path d="M250,191.45a.51.51,0,0,1-.34-.13.52.52,0,0,1-.16-.37V139.61a.5.5,0,0,1,.45-.5c3.21-.31,15.62-1.8,15.75-1.81a.51.51,0,0,1,.39.12.48.48,0,0,1,.17.37v50.36a.5.5,0,0,1-.31.46c-4.62,2-15.46,2.81-15.92,2.84Zm.5-51.39v50.35c2.22-.19,10.72-1,14.76-2.59V138.36C262.87,138.64,253.77,139.72,250.47,140.06Z" fill="#231f20"></path><path d="M275.49,186.2a.49.49,0,0,1-.32-.12.53.53,0,0,1-.18-.38V145.85a.5.5,0,0,1,.42-.49,81.52,81.52,0,0,0,15.65-4.47.49.49,0,0,1,.47,0,.51.51,0,0,1,.22.42v39a.5.5,0,0,1-.27.44,59,59,0,0,1-15.91,5.45Zm.5-39.93V185.1A58.8,58.8,0,0,0,290.75,180v-37.9A82.66,82.66,0,0,1,276,146.27Z" fill="#231f20"></path><path d="M300.26,177.25a.5.5,0,0,1-.31-.1.51.51,0,0,1-.19-.4v-28.3a.5.5,0,0,1,.38-.48,46.85,46.85,0,0,0,14-6.09.51.51,0,0,1,.52,0,.5.5,0,0,1,.27.45v28.62a.5.5,0,0,1-.23.42,54.4,54.4,0,0,1-14.32,5.91Zm.5-28.41v27.27a53.56,53.56,0,0,0,13.17-5.47V143.21A49.12,49.12,0,0,1,300.76,148.84Z" fill="#231f20"></path><path d="M295.32,130.13a.5.5,0,0,1-.12-1c.11,0,11.47-3,20-9.44a.51.51,0,0,1,.7.1.5.5,0,0,1-.1.7c-8.72,6.6-20.26,9.58-20.37,9.61Z" fill="#fff"></path><path d="M303.93,132.74a.5.5,0,0,1-.2-1l1.75-.78a37.69,37.69,0,0,0,9.72-5.51.5.5,0,0,1,.64.76,39.09,39.09,0,0,1-9.95,5.67l-1.75.77A.54.54,0,0,1,303.93,132.74Z" fill="#fff"></path><path d="M92.38,166.72a.54.54,0,0,1-.28-.08A57.51,57.51,0,0,1,79,153.93a.5.5,0,0,1,.11-.69.51.51,0,0,1,.7.11A56.42,56.42,0,0,0,92.65,165.8a.51.51,0,0,1,.14.7A.5.5,0,0,1,92.38,166.72Z" fill="#d1d3d4"></path><path d="M92.38,175.91a.54.54,0,0,1-.28-.08A57.51,57.51,0,0,1,79,163.12a.5.5,0,0,1,.11-.69.51.51,0,0,1,.7.11A56.42,56.42,0,0,0,92.65,175a.51.51,0,0,1,.14.7A.5.5,0,0,1,92.38,175.91Z" fill="#d1d3d4"></path><path d="M92.38,185.1a.54.54,0,0,1-.28-.08A57.51,57.51,0,0,1,79,172.31a.5.5,0,0,1,.11-.69.51.51,0,0,1,.7.11,56.42,56.42,0,0,0,12.82,12.45.51.51,0,0,1,.14.7A.5.5,0,0,1,92.38,185.1Z" fill="#d1d3d4"></path><path d="M277.08,121.76a.48.48,0,0,1-.38-.17c-10.52-12.09-30.93-24.41-31.13-24.53a.51.51,0,0,1-.24-.43V64a.5.5,0,0,1,.5-.5.51.51,0,0,1,.5.5V96.35c2.35,1.44,21.12,13.09,31.13,24.59a.5.5,0,0,1,0,.7A.54.54,0,0,1,277.08,121.76Z" fill="#231f20"></path><path d="M266.06,100.42a2.18,2.18,0,0,1-1-.24c-1.78-.89-2.28-4.14-2.81-7.58-.38-2.49-.78-5.06-1.66-6.58a1,1,0,0,0-.89-.61c-2.78-.1-8.61,7.49-10.64,10.42a.5.5,0,0,1-.82-.56c.77-1.12,7.62-10.86,11.41-10.86h.09a2,2,0,0,1,1.72,1.1c1,1.68,1.38,4.35,1.78,6.93.47,3,.95,6.17,2.27,6.84a1.91,1.91,0,0,0,1.77-.24,19.8,19.8,0,0,0,5.62-4.64,23.57,23.57,0,0,1,6.36-5.26.5.5,0,0,1,.68.19.51.51,0,0,1-.2.68,22.72,22.72,0,0,0-6.1,5.07,21.09,21.09,0,0,1-5.89,4.85A3.66,3.66,0,0,1,266.06,100.42Z" fill="#231f20"></path><path d="M137.91,110.79a.5.5,0,0,1-.5-.5V82.06a.5.5,0,0,1,.35-.48,36.67,36.67,0,0,1,5.81-1.31.45.45,0,0,1,.38.13.47.47,0,0,1,.17.37v27.66a.51.51,0,0,1-.5.5.5.5,0,0,1-.5-.5V81.33a36.64,36.64,0,0,0-4.71,1.1v27.86A.5.5,0,0,1,137.91,110.79Z" fill="#231f20"></path><path d="M161.57,237h0a.51.51,0,0,1-.45-.33l-11-30.68L138,229.59a.52.52,0,0,1-.4.27.49.49,0,0,1-.44-.2l-12-15.69L117.58,226a.51.51,0,0,1-.68.17l-6.45-3.89a.49.49,0,0,1-.17-.68.5.5,0,0,1,.69-.17l6,3.62,7.65-12.26a.52.52,0,0,1,.4-.24.48.48,0,0,1,.42.2l12,15.64,12.3-23.92a.5.5,0,0,1,.91.06l11,30.63,5.29-11.2a.5.5,0,1,1,.9.43L162,236.72A.52.52,0,0,1,161.57,237Z" fill="#d1d3d4"></path><circle cx="117.16" cy="225.75" r="1.53" fill="#fff"></circle><path d="M117.16,227.78a2,2,0,1,1,2-2A2,2,0,0,1,117.16,227.78Zm0-3.06a1,1,0,1,0,1,1A1,1,0,0,0,117.16,224.72Z" fill="#d1d3d4"></path><circle cx="125.07" cy="213.09" r="1.53" fill="#fff"></circle><path d="M125.07,215.12a2,2,0,1,1,2-2A2,2,0,0,1,125.07,215.12Zm0-3.06a1,1,0,1,0,1,1A1,1,0,0,0,125.07,212.06Z" fill="#d1d3d4"></path><circle cx="150.17" cy="204.74" r="1.53" fill="#fff"></circle><path d="M150.17,206.77a2,2,0,1,1,2-2A2,2,0,0,1,150.17,206.77Zm0-3.06a1,1,0,1,0,1,1A1,1,0,0,0,150.17,203.71Z" fill="#d1d3d4"></path><circle cx="161.57" cy="236.5" r="1.53" fill="#fff"></circle><path d="M161.57,238.53a2,2,0,1,1,2-2A2,2,0,0,1,161.57,238.53Zm0-3.06a1,1,0,0,0,0,2.06,1,1,0,0,0,0-2.06Z" fill="#d1d3d4"></path><circle cx="137.51" cy="229.36" r="1.53" fill="#fff"></circle><path d="M137.51,231.39a2,2,0,1,1,2-2A2,2,0,0,1,137.51,231.39Zm0-3.06a1,1,0,1,0,1,1A1,1,0,0,0,137.51,228.33Z" fill="#d1d3d4"></path><path d="M242.71,213.46C222.28,223.57,200,223.74,200,223.74v32.71a89.91,89.91,0,0,0,42.71-9.28Z" fill="#fff"></path><path d="M202.63,257c-.88,0-1.75,0-2.64,0a.51.51,0,0,1-.49-.5V223.74a.5.5,0,0,1,.5-.5c.22,0,22.4-.29,42.49-10.23a.53.53,0,0,1,.49,0,.5.5,0,0,1,.23.42v33.71a.49.49,0,0,1-.27.45A90.42,90.42,0,0,1,202.63,257Zm-2.13-1a89.53,89.53,0,0,0,41.71-9.09V214.26c-18.42,8.89-38.34,9.86-41.71,10Z" fill="#231f20"></path><path d="M210,237.52a12.06,12.06,0,1,0,24.11,0H222V225.47A12.06,12.06,0,0,0,210,237.52Z" fill="#0410c6"></path><path d="M224,223.69v12.06H236A12.06,12.06,0,0,0,224,223.69Z" fill="#e6e7e8"></path><path d="M263,214.47a.49.49,0,0,1-.49-.41.51.51,0,0,1,.4-.59c.24,0,23.73-4.4,37.11-11.87a.5.5,0,1,1,.48.87c-13.52,7.55-37.17,11.95-37.41,12Z" fill="#d1d3d4"></path><path d="M263,223.33a.5.5,0,0,1-.09-1c.24-.05,23.73-4.41,37.11-11.88a.5.5,0,1,1,.48.87c-13.52,7.56-37.17,11.95-37.41,12Z" fill="#d1d3d4"></path><path d="M263,232.19a.5.5,0,0,1-.09-1c.24,0,23.73-4.41,37.11-11.88a.51.51,0,0,1,.68.19.5.5,0,0,1-.2.68c-13.52,7.56-37.17,11.95-37.41,12Z" fill="#d1d3d4"></path><path d="M263,241.05a.5.5,0,0,1-.09-1A196.49,196.49,0,0,0,283.14,235a.51.51,0,0,1,.63.33.5.5,0,0,1-.33.62A197.31,197.31,0,0,1,263.09,241Z" fill="#d1d3d4"></path><path d="M110.71,138.29a.49.49,0,0,1-.43-.24.51.51,0,0,1,.18-.69c6.78-4,20.64-6.93,21.23-7.05a.49.49,0,0,1,.59.38.5.5,0,0,1-.38.6c-.15,0-14.3,3-20.94,6.94A.57.57,0,0,1,110.71,138.29Z" fill="#d1d3d4"></path><path d="M110.71,143.31a.5.5,0,0,1-.25-.93c6.78-4,20.64-6.93,21.23-7a.5.5,0,0,1,.21,1c-.15,0-14.3,3-20.94,6.94A.47.47,0,0,1,110.71,143.31Z" fill="#d1d3d4"></path><path d="M110.71,148.33a.5.5,0,0,1-.43-.25.51.51,0,0,1,.18-.69c6.78-4,20.64-6.93,21.23-7a.51.51,0,0,1,.59.39.49.49,0,0,1-.38.59c-.15,0-14.3,3-20.94,6.94A.59.59,0,0,1,110.71,148.33Z" fill="#d1d3d4"></path><path d="M110.71,153.34a.5.5,0,0,1-.25-.93A58.18,58.18,0,0,1,123,147.54a.5.5,0,0,1,.28,1A57.88,57.88,0,0,0,111,153.27.47.47,0,0,1,110.71,153.34Z" fill="#d1d3d4"></path></g></svg>