<svg xmlns="http://www.w3.org/2000/svg" viewBox="0 0 400 300" width="406" height="306" class="illustration styles_illustrationTablet__1DWOa"><g id="_523_mailchimp_flatline" data-name="#523_mailchimp_flatline"><path d="M282.68,119.45s4.27-8.45,4.07-11.19c-.24-3.11-3.18-5.75-3.8-8.86-.89-4.47,2.19-7.82,5.37-10.45a12.16,12.16,0,0,1,3.55-2.3,9.11,9.11,0,0,1,4.75-.17c6.29,1.19,13.74,7.92,13.74,14.73,0,7.26-13.69,28.07-13.69,28.07Z" fill="#fff"></path><path d="M296.67,129.78a.52.52,0,0,1-.29-.09l-14-9.83a.49.49,0,0,1-.16-.64c1.17-2.31,4.17-8.79,4-10.92a11,11,0,0,0-1.86-4.51,14.37,14.37,0,0,1-1.93-4.29c-1-4.84,2.46-8.39,5.54-10.94a13,13,0,0,1,3.71-2.39,9.42,9.42,0,0,1,5-.18c6.54,1.24,14.14,8.16,14.14,15.22,0,7.32-13.21,27.49-13.77,28.34a.51.51,0,0,1-.33.22Zm-13.35-10.49,13.21,9.28c2-3,13.33-20.9,13.33-27.36S302.57,88.12,296.53,87a8.51,8.51,0,0,0-4.49.15,11.91,11.91,0,0,0-3.4,2.21c-2.87,2.37-6.06,5.65-5.2,10a13.52,13.52,0,0,0,1.81,4,11.94,11.94,0,0,1,2,5C287.43,110.75,284.17,117.57,283.32,119.29Z" fill="#231f20"></path><path d="M130.36,227.66l-23.73,1S92.25,258.92,97,264.06s16.69-15,16.69-15l21.46-1.36Z" fill="#fff"></path><path d="M98.83,265.4a2.92,2.92,0,0,1-2.22-1c-2.1-2.28-1.11-9.06,3-20.13,3-8.13,6.58-15.73,6.62-15.8a.5.5,0,0,1,.43-.29l23.73-1a.48.48,0,0,1,.5.38l4.78,20a.54.54,0,0,1-.08.41.52.52,0,0,1-.37.21L114,249.51c-1.2,2-9.42,15.32-14.76,15.88ZM107,229.17c-4,8.53-13.26,30.58-9.6,34.56a1.94,1.94,0,0,0,1.74.66c5.16-.54,14.06-15.46,14.15-15.62a.49.49,0,0,1,.4-.24l20.87-1.33-4.54-19Z" fill="#231f20"></path><path d="M253.33,246.39s16.14,16.51,18.19,16.5,30.55-22.43,29.49-25.95S275.3,241,275.3,241l-10.71-8.74Z" fill="#fff"></path><path d="M271.52,263.39c-2.1,0-14.72-12.74-18.54-16.65a.5.5,0,0,1,0-.66L264.2,232a.52.52,0,0,1,.34-.18.46.46,0,0,1,.37.11l10.5,8.57c3.17-1,21.65-6.5,25.32-4.54a1.48,1.48,0,0,1,.76.86c.18.62-.15,1.48-1.07,2.71-2.18,3-8,8.36-15.54,14.46-.47.38-11.66,9.41-13.36,9.42Zm-17.52-17c7.69,7.85,16.27,15.92,17.53,16,1.88-.27,24.48-17.78,28.49-24.06.59-.91.52-1.21.51-1.24s0-.15-.27-.27c-2.89-1.54-18.89,2.87-24.81,4.69a.48.48,0,0,1-.46-.09L264.67,233Z" fill="#231f20"></path><polygon points="222.78 181.02 276.09 232.29 254.54 255.53 189.36 205.48 222.78 181.02" fill="#231f20"></polygon><path d="M223.68,112s29.78,24.82,40,25.35l18.9-24.28,20.88,11.6s-19.38,47.69-30.39,48.51c-28.8,2.15-55.15-21.12-55.15-21.12Z" fill="#0410c6"></path><path d="M222.89,115.43s12.44,18.08,13,50.14-.8,50.82-33.18,60-76-10.23-69.9-53.21,48.26-68.63,55.59-68.26S222.89,115.43,222.89,115.43Z" fill="#0410c6"></path><path d="M133,188.6c5.42,31.52,41.81,45,69.79,37,23.67-6.74,30.78-18.58,32.66-37Z" fill="#231f20"></path><path d="M177.25,224.39c-.13,1-22.39,36.17-58.72,29.11l1.31-29.1s18.36-.68,21.22-4.65c7.88-11,10.55-16.87,10.55-16.87Z" fill="#231f20"></path><path d="M235.93,172.88h0a.52.52,0,0,1-.46-.54c1.95-22.75-8.12-47.21-8.22-47.45a.52.52,0,0,1,.27-.66.51.51,0,0,1,.65.27c.11.25,10.27,24.93,8.3,47.92A.5.5,0,0,1,235.93,172.88Z" fill="#231f20"></path><rect x="100.63" y="136.59" width="139.84" height="79.66" rx="8.06" transform="translate(39.26 -30.88) rotate(11.68)" fill="#fff"></rect><path d="M224.72,228.63a8.66,8.66,0,0,1-1.75-.18L101.8,203.39a8.55,8.55,0,0,1-6.64-10.11L108,131.05a8.57,8.57,0,0,1,10.11-6.65l121.17,25.06A8.55,8.55,0,0,1,246,159.57L233.08,221.8a8.57,8.57,0,0,1-8.36,6.83ZM116.4,125.22a7.58,7.58,0,0,0-7.4,6L96.14,193.48a7.56,7.56,0,0,0,5.87,8.93l121.16,25.06h0a7.57,7.57,0,0,0,8.93-5.87L245,159.37a7.56,7.56,0,0,0-5.87-8.93L117.94,125.38A7.39,7.39,0,0,0,116.4,125.22Z" fill="#231f20"></path><path d="M169,184.65a.51.51,0,0,1-.36-.15l-56.42-58.42a.5.5,0,0,1,0-.71.51.51,0,0,1,.71,0l56.19,58.18,74.65-31.12a.52.52,0,0,1,.66.27.5.5,0,0,1-.27.65l-75,31.25A.48.48,0,0,1,169,184.65Z" fill="#231f20"></path><path d="M228.49,227.67a.54.54,0,0,1-.35-.14l-48.56-47.6a.5.5,0,1,1,.7-.71l48.56,47.6a.49.49,0,0,1,0,.7A.51.51,0,0,1,228.49,227.67Z" fill="#231f20"></path><path d="M97.24,200.53a.5.5,0,0,1-.18-1l63.45-24.43a.5.5,0,0,1,.65.29.5.5,0,0,1-.29.64L97.42,200.5A.57.57,0,0,1,97.24,200.53Z" fill="#231f20"></path><path d="M183.86,169.6a12.05,12.05,0,0,1-5.41,2.54,13.35,13.35,0,0,1-6-.23,13.94,13.94,0,0,1-4.72-2.21,13.2,13.2,0,0,1-3.41-3.59,12,12,0,0,1-1.73-4.6,13,13,0,0,1,2.56-9.81,12.59,12.59,0,0,1,3.73-3.18,12.9,12.9,0,0,1,4.68-1.53,13.08,13.08,0,0,1,5.15.35,13.6,13.6,0,0,1,4.08,1.83,11.85,11.85,0,0,1,3.19,3.08,10.82,10.82,0,0,1,1.76,4.11,10.64,10.64,0,0,1-.22,4.89,10.17,10.17,0,0,1-1.21,2.93,7.89,7.89,0,0,1-1.63,1.89,5.92,5.92,0,0,1-1.83,1.07,7.22,7.22,0,0,1-1.84.44,9.19,9.19,0,0,1-1.66,0,7.81,7.81,0,0,1-1.26-.21,2.87,2.87,0,0,1-1.83-1.08,1.86,1.86,0,0,1-.31-1.38l-.06,0a8.26,8.26,0,0,1-2,.78,5.22,5.22,0,0,1-2.72-.11,4.59,4.59,0,0,1-3-2.45,5.36,5.36,0,0,1-.51-2,7,7,0,0,1,.24-2.33,8.64,8.64,0,0,1,1.19-2.66,8,8,0,0,1,1.93-2A6.24,6.24,0,0,1,173.5,153a6.38,6.38,0,0,1,2.93.12,5.11,5.11,0,0,1,2.08,1,3.11,3.11,0,0,1,1,1.81l.07,0,.65-1.41,3.1.81-2.93,6.18c-.15.29-.3.58-.44.87a4.7,4.7,0,0,0-.35.93,1.78,1.78,0,0,0-.06.95.79.79,0,0,0,.63.5,2.2,2.2,0,0,0,1.11,0,2.56,2.56,0,0,0,1.14-.65,5.52,5.52,0,0,0,1.05-1.36,9.47,9.47,0,0,0,.83-2.14,9.31,9.31,0,0,0,.27-3.65,7.4,7.4,0,0,0-1.12-3,7.76,7.76,0,0,0-2.31-2.25,11.66,11.66,0,0,0-3.33-1.42,10,10,0,0,0-3.91-.29,8.68,8.68,0,0,0-3.4,1.19,9.1,9.1,0,0,0-2.64,2.47,10.67,10.67,0,0,0-1.64,3.56,10.32,10.32,0,0,0-.3,4.08,8.55,8.55,0,0,0,1.27,3.43,9.32,9.32,0,0,0,2.6,2.64,11.77,11.77,0,0,0,3.68,1.66,11.34,11.34,0,0,0,3.59.38,9.81,9.81,0,0,0,3.18-.75Zm-7.94-13.48a3.51,3.51,0,0,0-1.57-.07,3.28,3.28,0,0,0-1.33.56,4,4,0,0,0-1,1.1,5.48,5.48,0,0,0-.64,1.48c0,.18-.1.44-.15.79a2.87,2.87,0,0,0,0,1.09,2.39,2.39,0,0,0,.58,1.08,2.88,2.88,0,0,0,1.48.8,3.17,3.17,0,0,0,1.64,0,2.84,2.84,0,0,0,1.24-.68,4,4,0,0,0,.85-1.15,7,7,0,0,0,.52-1.36,3.91,3.91,0,0,0,0-2.33A2.18,2.18,0,0,0,175.92,156.12Z" fill="#d1d3d4"></path><rect x="72.97" y="81.55" width="44.02" height="25.07" rx="2.54" transform="translate(-23.9 32.92) rotate(-17.5)" fill="#fff"></rect><path d="M79.41,112.52a3.14,3.14,0,0,1-1.4-.34,3,3,0,0,1-1.49-1.78l-6-19.08a3,3,0,0,1,2-3.81L109.63,75.8a3,3,0,0,1,3.81,2l6,19.08a3,3,0,0,1-2,3.8h0L80.33,112.38A3.21,3.21,0,0,1,79.41,112.52Zm31.13-35.86a2.15,2.15,0,0,0-.61.09L72.79,88.46A2,2,0,0,0,71.46,91l6,19.07A2,2,0,0,0,80,111.42l37.14-11.71a2,2,0,0,0,1.33-2.55l-6-19.08A2,2,0,0,0,110.54,76.66Zm6.78,23.53h0Z" fill="#d1d3d4"></path><path d="M95.73,97l-.15,0-24.47-7.4a.5.5,0,0,1-.34-.62.51.51,0,0,1,.63-.33l24.14,7.29,15.6-19.83a.5.5,0,0,1,.7-.08.5.5,0,0,1,.08.7l-15.8,20.1A.51.51,0,0,1,95.73,97Z" fill="#d1d3d4"></path><path d="M118.69,99.64l-.13,0L97.91,94a.5.5,0,0,1,.26-1l20.65,5.63a.49.49,0,0,1,.35.61A.5.5,0,0,1,118.69,99.64Z" fill="#d1d3d4"></path><path d="M78.46,112.33a.47.47,0,0,1-.32-.12.49.49,0,0,1-.07-.7L91.76,95.05a.49.49,0,0,1,.7-.06.5.5,0,0,1,.07.7L78.84,112.15A.49.49,0,0,1,78.46,112.33Z" fill="#d1d3d4"></path><path d="M97.59,90.17a3.76,3.76,0,0,1-1.1,1.53,4.18,4.18,0,0,1-1.69.86,4.53,4.53,0,0,1-1.63.12,4.13,4.13,0,0,1-1.49-.47,3.75,3.75,0,0,1-1.19-1,4.18,4.18,0,0,1-.8-3.09,4,4,0,0,1,1.59-2.59,4.15,4.15,0,0,1,1.47-.69,4.39,4.39,0,0,1,1.4-.13,3.86,3.86,0,0,1,1.35.36,3.4,3.4,0,0,1,1.11.86,3.34,3.34,0,0,1,.7,1.38,3.23,3.23,0,0,1,.11,1,2.51,2.51,0,0,1-.15.77,2,2,0,0,1-.34.57,2.31,2.31,0,0,1-.44.4,2.14,2.14,0,0,1-.46.26,3.79,3.79,0,0,1-.38.14.93.93,0,0,1-.67,0,.58.58,0,0,1-.29-.33h0a2.82,2.82,0,0,1-.42.52,1.8,1.8,0,0,1-.77.39,1.49,1.49,0,0,1-1.2-.21,1.6,1.6,0,0,1-.45-.48,2,2,0,0,1-.29-.67,2.61,2.61,0,0,1-.08-.92,2.42,2.42,0,0,1,.21-.85,2,2,0,0,1,.52-.69,2.12,2.12,0,0,1,.82-.42,1.69,1.69,0,0,1,.73,0,1,1,0,0,1,.55.35h0l0-.49,1-.25.14,2.15c0,.1,0,.2,0,.3a1.54,1.54,0,0,0,0,.31.49.49,0,0,0,.13.27.23.23,0,0,0,.25,0,.57.57,0,0,0,.3-.17.73.73,0,0,0,.22-.35,1.73,1.73,0,0,0,.07-.54,2.46,2.46,0,0,0-.1-.71,2.83,2.83,0,0,0-.48-1,2.31,2.31,0,0,0-1.75-.91,3.72,3.72,0,0,0-1.13.12,3.12,3.12,0,0,0-1.12.52,2.63,2.63,0,0,0-.75.85,2.86,2.86,0,0,0-.35,1.08,3.46,3.46,0,0,0,.1,1.23,3.33,3.33,0,0,0,.54,1.17,2.74,2.74,0,0,0,2,1.07,3.41,3.41,0,0,0,1.26-.11,3.57,3.57,0,0,0,1-.44,3,3,0,0,0,.75-.7Zm-4.25-2.48a1,1,0,0,0-.45.22,1,1,0,0,0-.27.36,1,1,0,0,0-.11.45,1.5,1.5,0,0,0,0,.51,2.16,2.16,0,0,0,.08.24,1,1,0,0,0,.17.29.78.78,0,0,0,.33.21.87.87,0,0,0,.53,0,1.06,1.06,0,0,0,.46-.24.83.83,0,0,0,.23-.38,1.09,1.09,0,0,0,.06-.44,2.32,2.32,0,0,0-.07-.46,1.22,1.22,0,0,0-.36-.63A.67.67,0,0,0,93.34,87.69Z" fill="#d1d3d4"></path><rect x="69.6" y="209.5" width="25.7" height="14.64" rx="1.48" transform="translate(116.15 -12.69) rotate(29.17)" fill="#fff"></rect><path d="M89.53,229.44a1.94,1.94,0,0,1-1-.25h0L68.71,218.11a2,2,0,0,1-.94-1.19,2,2,0,0,1,.18-1.51l5.69-10.2a2,2,0,0,1,1.19-.94,2,2,0,0,1,1.5.18l19.86,11.09a2,2,0,0,1,.76,2.69l-5.69,10.2a1.95,1.95,0,0,1-1.73,1Zm-.48-1.12a1,1,0,0,0,1.34-.38l5.69-10.2a1,1,0,0,0,.09-.74,1,1,0,0,0-.47-.59L75.85,205.32a1,1,0,0,0-.75-.08,1,1,0,0,0-.59.46l-5.69,10.2a1,1,0,0,0-.09.75.94.94,0,0,0,.47.58Z" fill="#d1d3d4"></path><path d="M81.74,218.59a.49.49,0,0,1-.44-.28L74.63,205a.5.5,0,1,1,.9-.44L82,217.56l14.53-1.31a.5.5,0,0,1,.54.46.51.51,0,0,1-.45.54l-14.87,1.34Z" fill="#d1d3d4"></path><path d="M89.8,229.42a.5.5,0,0,1-.44-.27l-5.88-11a.5.5,0,0,1,.2-.68.5.5,0,0,1,.68.21l5.88,11a.5.5,0,0,1-.2.68A.53.53,0,0,1,89.8,229.42Z" fill="#d1d3d4"></path><path d="M68.29,217.41a.5.5,0,0,1-.5-.47.51.51,0,0,1,.47-.53l12.48-.78a.5.5,0,0,1,.53.47.51.51,0,0,1-.47.53l-12.47.78Z" fill="#d1d3d4"></path><path d="M85.16,216.36a2.28,2.28,0,0,1-1.09.15,2.47,2.47,0,0,1-1-.38,2.57,2.57,0,0,1-.71-.64,2.5,2.5,0,0,1-.4-.82,2.46,2.46,0,0,1,0-.9,2.42,2.42,0,0,1,.34-.9,2.26,2.26,0,0,1,.66-.68,2.13,2.13,0,0,1,.82-.35,2.32,2.32,0,0,1,.91,0,2.44,2.44,0,0,1,.88.34,2.5,2.5,0,0,1,.62.55,2.46,2.46,0,0,1,.39.71,2.05,2.05,0,0,1,.08.82,1.92,1.92,0,0,1-.31.85,1.86,1.86,0,0,1-.37.44,2.28,2.28,0,0,1-.39.25,1.08,1.08,0,0,1-.38.08,1.32,1.32,0,0,1-.35,0l-.29-.09-.21-.11a.5.5,0,0,1-.26-.29.33.33,0,0,1,0-.26h0a1.24,1.24,0,0,1-.39,0,1,1,0,0,1-.47-.17,1,1,0,0,1-.27-.26.82.82,0,0,1-.12-.34.78.78,0,0,1,0-.37,1.27,1.27,0,0,1,.17-.4,1.71,1.71,0,0,1,.35-.4,1.43,1.43,0,0,1,.45-.25,1.21,1.21,0,0,1,.5-.06,1.18,1.18,0,0,1,.51.19.87.87,0,0,1,.31.29.56.56,0,0,1,.07.37h0l.2-.22.49.32-.85.92-.13.13a.76.76,0,0,0-.11.14.32.32,0,0,0-.06.16.15.15,0,0,0,.08.13.59.59,0,0,0,.2.06.68.68,0,0,0,.23-.05.86.86,0,0,0,.26-.19,1.31,1.31,0,0,0,.26-.33,1.53,1.53,0,0,0,.25-.62,1.18,1.18,0,0,0,0-.59,1.33,1.33,0,0,0-.28-.52,2.13,2.13,0,0,0-.5-.43,1.89,1.89,0,0,0-.67-.27,1.62,1.62,0,0,0-.66,0,1.67,1.67,0,0,0-.6.29,2.08,2.08,0,0,0-.49.53,2.14,2.14,0,0,0-.28.7,1.66,1.66,0,0,0,.35,1.28,2,2,0,0,0,.55.49A2,2,0,0,0,84,216a1.74,1.74,0,0,0,.6,0Zm-.65-2.8a.6.6,0,0,0-.27-.1.7.7,0,0,0-.5.16.87.87,0,0,0-.19.23.6.6,0,0,0-.08.13.87.87,0,0,0,0,.19.45.45,0,0,0,0,.22.58.58,0,0,0,.22.22.56.56,0,0,0,.28.1.55.55,0,0,0,.26-.05.65.65,0,0,0,.21-.16,1.2,1.2,0,0,0,.17-.21.65.65,0,0,0,.12-.41A.36.36,0,0,0,84.51,213.56Z" fill="#d1d3d4"></path><rect x="276.67" y="188.1" width="41.86" height="23.84" rx="2.41" transform="translate(150.51 -126.99) rotate(31.88)" fill="#fff"></rect><path d="M308.3,220.78a2.89,2.89,0,0,1-1.54-.44h0l-31.44-19.55a2.91,2.91,0,0,1-.94-4l10-16.15a2.91,2.91,0,0,1,1.82-1.3,2.85,2.85,0,0,1,2.19.36l31.45,19.56a2.91,2.91,0,0,1,.94,4l-10.05,16.15A2.89,2.89,0,0,1,308.3,220.78Zm-1-1.28a1.91,1.91,0,0,0,2.63-.62L320,202.73a1.91,1.91,0,0,0-.61-2.63l-31.45-19.56a1.92,1.92,0,0,0-2.64.61l-10,16.16a1.91,1.91,0,0,0,.61,2.63Z" fill="#d1d3d4"></path><path d="M296.35,202.52a.49.49,0,0,1-.46-.3L286.08,180a.5.5,0,0,1,.91-.4l9.68,21.93,23.95-1a.48.48,0,0,1,.52.48.5.5,0,0,1-.48.52l-24.29,1Z" fill="#d1d3d4"></path><path d="M308.63,220.76a.51.51,0,0,1-.45-.29l-8.72-18.38a.5.5,0,1,1,.9-.43L309.08,220a.5.5,0,0,1-.23.67A.59.59,0,0,1,308.63,220.76Z" fill="#d1d3d4"></path><path d="M274.57,199.57a.49.49,0,0,1-.5-.49.5.5,0,0,1,.49-.51l20.35-.3h0a.5.5,0,0,1,.5.49.52.52,0,0,1-.5.51l-20.35.3Z" fill="#d1d3d4"></path><path d="M302,199.48a3.6,3.6,0,0,1-1.78.15,4.07,4.07,0,0,1-1.67-.69,4.42,4.42,0,0,1-1.1-1.1,4,4,0,0,1-.58-1.37,3.47,3.47,0,0,1,0-1.47,3.63,3.63,0,0,1,.61-1.42,3.79,3.79,0,0,1,1.12-1.07A3.84,3.84,0,0,1,300,192a4.06,4.06,0,0,1,1.47.06,3.88,3.88,0,0,1,1.41.63,4,4,0,0,1,1,.93,3.49,3.49,0,0,1,.57,1.2,3.19,3.19,0,0,1-.49,2.69,3.32,3.32,0,0,1-.64.69,2.6,2.6,0,0,1-.66.37,2,2,0,0,1-.62.11,2,2,0,0,1-.56-.07,2,2,0,0,1-.47-.17,2.25,2.25,0,0,1-.33-.19.9.9,0,0,1-.41-.49.58.58,0,0,1,.06-.42h0a2.19,2.19,0,0,1-.63,0,1.52,1.52,0,0,1-.75-.31,1.29,1.29,0,0,1-.42-.45,1.32,1.32,0,0,1-.18-.55,1.5,1.5,0,0,1,.07-.62,2.26,2.26,0,0,1,.3-.63,2.8,2.8,0,0,1,.62-.62,2.19,2.19,0,0,1,.75-.37,1.84,1.84,0,0,1,.81-.06,1.9,1.9,0,0,1,.81.34,1.6,1.6,0,0,1,.48.5.89.89,0,0,1,.09.61h0l.33-.33.78.55-1.46,1.43-.21.2a1.3,1.3,0,0,0-.19.22.68.68,0,0,0-.12.27.25.25,0,0,0,.13.2.64.64,0,0,0,.31.11.69.69,0,0,0,.39-.06,1.65,1.65,0,0,0,.43-.28,2.63,2.63,0,0,0,.46-.51,2.85,2.85,0,0,0,.45-1,2,2,0,0,0,0-1,2.31,2.31,0,0,0-.41-.87,3.34,3.34,0,0,0-.79-.75,3,3,0,0,0-1.07-.48,2.62,2.62,0,0,0-1.08,0,2.69,2.69,0,0,0-1,.42,3.12,3.12,0,0,0-.83.83,3,3,0,0,0-.51,1.12,2.5,2.5,0,0,0,0,1.09,2.88,2.88,0,0,0,.46,1,3.52,3.52,0,0,0,.87.85,3.45,3.45,0,0,0,1,.48,3,3,0,0,0,1,.11Zm-.84-4.61a1,1,0,0,0-.43-.18.89.89,0,0,0-.43,0,1.16,1.16,0,0,0-.4.2,1.84,1.84,0,0,0-.33.35l-.13.21a.94.94,0,0,0-.1.31.67.67,0,0,0,.05.36.85.85,0,0,0,.34.38.86.86,0,0,0,.45.18,1,1,0,0,0,.42-.06,1.41,1.41,0,0,0,.36-.24,1.75,1.75,0,0,0,.28-.33,1.12,1.12,0,0,0,.24-.66A.64.64,0,0,0,301.2,194.87Z" fill="#d1d3d4"></path><path d="M159.94,181s13.71,12.38,15,15.58-8.92-2.82-8.22-2.07S175.53,206,172,209.92s-9.76,6.57-13.14,4.7-16.7-20.84-16.7-20.84Z" fill="#fff"></path><path d="M161.52,215.75a6,6,0,0,1-2.94-.7c-3.44-1.91-16.33-20.2-16.87-21a.5.5,0,0,1,.12-.7l17.82-12.76a.5.5,0,0,1,.62,0c.57.51,13.82,12.51,15.16,15.76.3.74.1,1.15-.13,1.36-.8.76-3-.09-7-2,2.35,3.28,7.25,11,4.06,14.55C169.55,213.33,165.12,215.75,161.52,215.75ZM142.81,193.9c4.68,6.63,13.71,18.87,16.26,20.28,3.18,1.77,9.24-1,12.52-4.59s-4.4-13.87-5.2-14.72a.59.59,0,0,1-.07-.7c.29-.39.43-.31,2.2.55,1.32.64,5.27,2.57,6.07,2.31a1.68,1.68,0,0,0-.09-.24c-1-2.39-9.81-10.79-14.6-15.13Z" fill="#231f20"></path><path d="M168.77,108.12s-36.77,5.41-52.12,26.56S139.33,200,139.33,200l26.91-19.1-20.09-32.38s46-14.92,44-27.6S174,106.15,168.77,108.12Z" fill="#0410c6"></path><path d="M146.15,149a.5.5,0,0,1-.46-.31.49.49,0,0,1,.26-.65l41.21-17.43a.5.5,0,0,1,.66.27.49.49,0,0,1-.27.65L146.34,149A.65.65,0,0,1,146.15,149Z" fill="#231f20"></path><path d="M227.06,48.22s-1.28-14.94-5.49-16.77-19.41,1.65-31.94,9.89-19,16.73-19.38,19.16,3,18,3,18,44.4-29.95,52.53-30" fill="#fff"></path><path d="M173.23,79a.39.39,0,0,1-.18,0,.46.46,0,0,1-.3-.35c-.14-.64-3.39-15.66-3-18.16s6.74-11,19.61-19.5c12.17-8,27.68-12,32.41-9.93,4.36,1.89,5.65,15.63,5.79,17.18a.51.51,0,0,1-.46.55.5.5,0,0,1-.54-.46c-.35-4.07-2-14.95-5.19-16.35-4-1.74-19,1.63-31.46,9.84C177,50.22,171.06,58.54,170.74,60.58c-.29,1.82,1.82,12.32,2.83,17.06C179.17,73.89,218,48,225.75,47.93a.5.5,0,0,1,0,1c-7.89.09-51.81,29.66-52.26,30A.54.54,0,0,1,173.23,79Z" fill="#231f20"></path><path d="M182.11,64.55s31.61-19.8,47.3-21.3,17.18,2.67,14.05,8.55-15.07,12.45-15.07,12.45Z" fill="#231f20"></path><path d="M248.12,101.7c.33,3-7.43,13.23-19.35,21.21-.48.31-1,.63-1.45.92-11.75,7.31-26.9,10.06-40.59-.25C172.48,112.85,160,84,173.57,71s40-19.74,51.18-15.93,10.08,13.17,10.08,13.17c.3,3.44-1.71,3.59-1.71,3.59-.53,5.94,3.06,12.13,3.06,12.13,4.19.56,2.45,5.26,2.45,5.26,10.6,3.93,5.68,10.43,5.68,10.43S247.79,98.75,248.12,101.7Z" fill="#fff"></path><path d="M206.39,130.81a32.78,32.78,0,0,1-20-6.83c-10.18-7.67-18.42-23.07-19.17-35.84-.42-7.32,1.64-13.38,6-17.5,13.75-13.12,40.35-19.9,51.69-16,11,3.75,10.49,12.83,10.42,13.64a4.37,4.37,0,0,1-.76,3.29,2.25,2.25,0,0,1-1,.7c-.3,5,2.32,10.19,2.91,11.27A3.44,3.44,0,0,1,239,85.06a5.26,5.26,0,0,1,.28,3.86c3.62,1.42,5.8,3.32,6.48,5.65a6.26,6.26,0,0,1-.47,4.45,3.75,3.75,0,0,1,2.22.55,2.76,2.76,0,0,1,1.14,2.07h0c.52,4.64-11.33,16.17-19.58,21.69-.48.32-1,.63-1.46.93C220.56,128.63,213.34,130.81,206.39,130.81ZM217,54.5c-12.78,0-32.06,6.38-43.05,16.86-4.1,3.92-6.06,9.7-5.65,16.72.72,12.3,9,27.72,18.77,35.1,11.61,8.74,26.2,8.83,40,.23.49-.3,1-.61,1.43-.92,12.19-8.15,19.42-18.2,19.13-20.74a1.75,1.75,0,0,0-.71-1.35,3.58,3.58,0,0,0-2.48-.27.49.49,0,0,1-.52-.78,5.61,5.61,0,0,0,.85-4.51c-.61-2.09-2.74-3.83-6.3-5.15a.5.5,0,0,1-.3-.64s.77-2.13,0-3.47a2.57,2.57,0,0,0-2-1.13.52.52,0,0,1-.37-.24c-.15-.26-3.66-6.4-3.12-12.42a.51.51,0,0,1,.46-.46s1.5-.2,1.25-3a.31.31,0,0,1,0-.1c0-.37.92-9-9.75-12.64A24.39,24.39,0,0,0,217,54.5Z" fill="#231f20"></path><path d="M248.12,101.7c.33,3-7.43,13.23-19.35,21.21-.48.31-1,.63-1.45.92-14.7,1.31-16.65-5.33-16.65-5.33l-.23,2.4c-6.12-2.61-7.63-10.72-7.63-10.72l-1,2.68s-3.07-3.27-1.92-11.52,10.35-11.82,10.35-11.82-10.46-4.1-8.85-14.31,13.65-12.85,20-6.8,11.68,3.42,11.68,3.42c-.53,5.94,3.06,12.13,3.06,12.13,4.19.56,2.45,5.26,2.45,5.26,10.6,3.93,5.68,10.43,5.68,10.43S247.79,98.75,248.12,101.7Z" fill="#fff"></path><path d="M223.65,124.5c-8,0-11.3-2.64-12.64-4.38l-.08.83a.47.47,0,0,1-.24.38.48.48,0,0,1-.45,0c-4.66-2-6.73-6.92-7.51-9.49L202.3,113a.45.45,0,0,1-.36.32.51.51,0,0,1-.47-.14c-.13-.15-3.22-3.55-2-11.94,1-6.87,7.17-10.55,9.65-11.76-2.65-1.38-9.5-5.84-8.15-14.38A11.9,11.9,0,0,1,209,65.39a12.77,12.77,0,0,1,12.79,2.66c6,5.71,10.9,3.43,11.11,3.33a.52.52,0,0,1,.5,0,.52.52,0,0,1,.22.46c-.46,5.11,2.28,10.51,2.88,11.62A3.44,3.44,0,0,1,239,85.06a5.26,5.26,0,0,1,.28,3.86c3.62,1.42,5.8,3.32,6.48,5.65a6.26,6.26,0,0,1-.47,4.45,3.75,3.75,0,0,1,2.22.55,2.76,2.76,0,0,1,1.14,2.07h0c.52,4.64-11.33,16.17-19.58,21.69-.48.32-1,.63-1.46.93a.58.58,0,0,1-.21.07C226,124.45,224.79,124.5,223.65,124.5Zm-13-6.5a.51.51,0,0,1,.48.36c0,.06,2.07,6.18,16,5,.45-.27.89-.56,1.33-.85,12.19-8.15,19.42-18.2,19.13-20.74a1.75,1.75,0,0,0-.71-1.35,3.58,3.58,0,0,0-2.48-.27.49.49,0,0,1-.52-.78,5.61,5.61,0,0,0,.85-4.51c-.61-2.09-2.74-3.83-6.3-5.15a.5.5,0,0,1-.3-.64s.77-2.13,0-3.47a2.57,2.57,0,0,0-2-1.13.52.52,0,0,1-.37-.24c-.14-.25-3.36-5.88-3.17-11.64-1.75.52-6.27,1.14-11.47-3.8a11.74,11.74,0,0,0-11.77-2.43,10.91,10.91,0,0,0-7.41,9C200.38,85,210,88.9,210.45,89.06a.5.5,0,0,1,.32.46.51.51,0,0,1-.32.47c-.09,0-8.93,3.57-10,11.42-.81,5.75.5,9,1.28,10.37l.64-1.77a.51.51,0,0,1,.51-.33.5.5,0,0,1,.45.41c0,.07,1.43,7.32,6.71,10.06l.16-1.7a.5.5,0,0,1,.45-.45Z" fill="#231f20"></path><path d="M227.92,105.43c-6.12,0-13.89-1.66-23.25-6.85a.5.5,0,0,1,.49-.87c25.41,14.08,38.67,1.71,38.8,1.58a.5.5,0,0,1,.71,0,.51.51,0,0,1,0,.71C244.57,100.09,238.88,105.43,227.92,105.43Z" fill="#231f20"></path><path d="M227.58,88.72h-.13a.5.5,0,0,1-.36-.61c1.43-5.64,9.08-4.65,9.15-4.64a.5.5,0,0,1-.13,1c-.07,0-6.84-.88-8.05,3.9A.5.5,0,0,1,227.58,88.72Z" fill="#231f20"></path><ellipse cx="225.7" cy="76.94" rx="1.69" ry="2.97" transform="translate(-9.56 38.04) rotate(-9.44)" fill="#231f20"></ellipse><path d="M215.92,90.77a.52.52,0,0,1-.42-.22.51.51,0,0,1,.14-.7c4.64-3,11.34-3.71,11.62-3.74a.5.5,0,0,1,.09,1c-.06,0-6.73.66-11.16,3.58A.45.45,0,0,1,215.92,90.77Z" fill="#231f20"></path><path d="M233.07,86.82a2.05,2.05,0,0,0-.87-.44,1.06,1.06,0,0,0-.93.17,1.24,1.24,0,0,0-.31,1.2,1.77,1.77,0,0,0,1.18,1.35,1.18,1.18,0,0,0,1.5-.9A1.59,1.59,0,0,0,233.07,86.82Z" fill="#231f20"></path><path d="M234.93,88.33a.82.82,0,0,0,1,.69,1.84,1.84,0,0,0,1.08-.57,1.78,1.78,0,0,0,.35-.89c.25-1.76-2-1.26-2.39,0A1.5,1.5,0,0,0,234.93,88.33Z" fill="#231f20"></path><path d="M177.34,79s-6.44-12.89-14-2.4.11,22.62,12.17,19.71" fill="#fff"></path><path d="M172,97.21A11.92,11.92,0,0,1,161.81,92c-3.06-4.56-2.64-10.59,1.09-15.75,2.21-3.06,4.57-4.51,7-4.31,4.62.38,7.74,6.52,7.87,6.78a.5.5,0,1,1-.89.45c0-.06-3-5.9-7.06-6.23-2.07-.16-4.14,1.14-6.12,3.89-3.48,4.82-3.9,10.41-1.08,14.62,2.63,3.92,7.51,5.57,12.73,4.32a.49.49,0,0,1,.6.37.51.51,0,0,1-.37.6A15.47,15.47,0,0,1,172,97.21Z" fill="#231f20"></path><path d="M208.71,100.1s8.95,13,20.39,11.55S242.52,101,242.52,101,227.64,107.39,208.71,100.1Z" fill="#231f20"></path><path d="M175.46,84.24s-2.35-5.59-5.91-6.1-8.27,6.42-4.68,10.56a10.5,10.5,0,0,0,8.58,3.55l-.79-2.3a7.7,7.7,0,0,0,1.88-.43c.2-.21-1.7-2.38-.89-2.52s1.44.48,1.93-.14S175.46,84.24,175.46,84.24Z" fill="#d1d3d4"></path><path d="M171.31,69.35a.55.55,0,0,1-.34-.13.5.5,0,0,1,0-.71,104.27,104.27,0,0,1,28.29-20.79c16.84-8.23,26-8.59,26.38-8.6a.5.5,0,1,1,0,1c-.09,0-9.36.38-26,8.5a103.2,103.2,0,0,0-28,20.56A.51.51,0,0,1,171.31,69.35Z" fill="#231f20"></path><path d="M216.93,80.85a.45.45,0,0,1-.27-.08c-4.65-3.1-7-2.11-7-2.1a.51.51,0,0,1-.66-.24.49.49,0,0,1,.23-.66c.11-.06,2.81-1.28,8,2.17a.5.5,0,0,1,.14.69A.48.48,0,0,1,216.93,80.85Z" fill="#231f20"></path><path d="M217.78,78.76a.51.51,0,0,1-.44-.26s-2.06-3.73-5.5-3.73h-.11a.5.5,0,0,1,0-1h.12c4,0,6.29,4.07,6.38,4.25a.51.51,0,0,1-.2.68A.53.53,0,0,1,217.78,78.76Z" fill="#231f20"></path><rect x="273.48" y="72.1" width="55.36" height="31.54" rx="3.19" transform="translate(90.22 -144.35) rotate(31.48)" fill="#fff"></rect><path d="M315.47,115.07a3.63,3.63,0,0,1-1.92-.54h0L271.78,89a3.69,3.69,0,0,1-1.22-5.07L283.7,62.42a3.67,3.67,0,0,1,5.07-1.21l41.77,25.58a3.69,3.69,0,0,1,1.22,5.07l-13.14,21.45A3.67,3.67,0,0,1,315.47,115.07Zm-1.4-1.39a2.69,2.69,0,0,0,3.7-.89l13.14-21.45a2.69,2.69,0,0,0-.89-3.7L288.25,62.06a2.7,2.7,0,0,0-3.7.89L271.41,84.4a2.7,2.7,0,0,0,.89,3.7Z" fill="#231f20"></path><path d="M299.53,91a.5.5,0,0,1-.46-.29L285.89,61.41a.5.5,0,0,1,.91-.41l13.05,29,31.77-1.57a.49.49,0,0,1,.52.47.5.5,0,0,1-.47.53L299.55,91Z" fill="#231f20"></path><path d="M315.94,115a.48.48,0,0,1-.45-.28L303.78,90.52a.5.5,0,0,1,.9-.44l11.71,24.24a.5.5,0,0,1-.24.67A.54.54,0,0,1,315.94,115Z" fill="#231f20"></path><path d="M270.69,87.33a.5.5,0,0,1,0-1l26.91-.59a.51.51,0,0,1,.51.49.5.5,0,0,1-.49.51l-26.91.59Z" fill="#231f20"></path><path d="M307,87.11a4.73,4.73,0,0,1-2.35.22,5.28,5.28,0,0,1-2.22-.89A5.48,5.48,0,0,1,301,85a5.39,5.39,0,0,1-.79-1.79,4.74,4.74,0,0,1,0-2,4.89,4.89,0,0,1,.8-1.89,5,5,0,0,1,1.47-1.42,4.87,4.87,0,0,1,1.81-.68,4.94,4.94,0,0,1,2,.06,5.25,5.25,0,0,1,1.87.81,5.57,5.57,0,0,1,1.28,1.24,4.69,4.69,0,0,1,.77,1.57,4.2,4.2,0,0,1,.1,1.77,4.1,4.1,0,0,1-.73,1.79,4.29,4.29,0,0,1-.84.93,3.35,3.35,0,0,1-.87.49,2.42,2.42,0,0,1-.82.15,2.83,2.83,0,0,1-.74-.09,3.21,3.21,0,0,1-.62-.22,2.9,2.9,0,0,1-.45-.25,1.12,1.12,0,0,1-.53-.64.7.7,0,0,1,.07-.56l0,0a2.88,2.88,0,0,1-.84,0,2.1,2.1,0,0,1-1-.4,1.81,1.81,0,0,1-.55-.59,1.77,1.77,0,0,1-.25-.73,2.14,2.14,0,0,1,.08-.82,2.79,2.79,0,0,1,.41-.83,3.37,3.37,0,0,1,.8-.84,3.05,3.05,0,0,1,1-.49,2.42,2.42,0,0,1,1.07-.08,2.5,2.5,0,0,1,1.08.44,2,2,0,0,1,.64.65,1.19,1.19,0,0,1,.12.8l0,0,.43-.44,1,.72-1.91,1.91-.28.26a1.87,1.87,0,0,0-.26.3.83.83,0,0,0-.15.35.3.3,0,0,0,.17.27.92.92,0,0,0,.41.15,1.2,1.2,0,0,0,.51-.09,2.24,2.24,0,0,0,.58-.37,3.52,3.52,0,0,0,.59-.69,3.35,3.35,0,0,0,.59-1.32,2.82,2.82,0,0,0,0-1.26,3.15,3.15,0,0,0-.56-1.15,4.71,4.71,0,0,0-1.05-1,4.16,4.16,0,0,0-1.42-.63,3.4,3.4,0,0,0-1.42,0,3.36,3.36,0,0,0-1.32.57,4.39,4.39,0,0,0-1.09,1.1,4.09,4.09,0,0,0-.65,1.48,3.22,3.22,0,0,0,0,1.45,3.72,3.72,0,0,0,.61,1.33,4.68,4.68,0,0,0,1.15,1.11,4.24,4.24,0,0,0,1.29.62,3.54,3.54,0,0,0,1.28.15ZM305.88,81a1.33,1.33,0,0,0-1.14-.21,1.48,1.48,0,0,0-.53.27,2.15,2.15,0,0,0-.43.47l-.17.27a1.4,1.4,0,0,0-.13.41.92.92,0,0,0,.07.48,1.19,1.19,0,0,0,.44.5,1.34,1.34,0,0,0,.61.24,1.25,1.25,0,0,0,.55-.09,1.63,1.63,0,0,0,.47-.32,2.55,2.55,0,0,0,.38-.43,1.58,1.58,0,0,0,.3-.88A.84.84,0,0,0,305.88,81Z" fill="#d1d3d4"></path><path d="M296.33,107.55c2-4.67-4.32-9-4.32-9s7.55,3.87,11.76,2-11.59-9.37-11.59-9.37-6.48-1.85-8.86,4.12c0,0-1.13,2,0,5.47" fill="#fff"></path><path d="M296.33,108.05a.46.46,0,0,1-.2,0,.49.49,0,0,1-.26-.65c1.84-4.24-4.09-8.38-4.15-8.42a.49.49,0,0,1-.14-.67.49.49,0,0,1,.65-.19c.08,0,7.39,3.73,11.34,2,.41-.19.42-.36.42-.42,0-1.61-7-5.67-12-8-.17,0-6-1.63-8.18,3.84a6.83,6.83,0,0,0,.05,5.13.5.5,0,1,1-.95.32c-1.22-3.61-.05-5.79,0-5.88,2.49-6.26,9.37-4.37,9.44-4.35,2.18,1,12.7,6.16,12.67,9a1.46,1.46,0,0,1-1,1.32c-2.72,1.21-6.65.21-9.31-.77,1.68,1.81,3.41,4.59,2.13,7.56A.52.52,0,0,1,296.33,108.05Z" fill="#231f20"></path><path d="M166.24,181.42a.51.51,0,0,1-.43-.24L139.5,138.79a.51.51,0,0,1,.17-.69.5.5,0,0,1,.68.16l26.31,42.39a.51.51,0,0,1-.42.77Z" fill="#231f20"></path><path d="M259.59,143.18a.47.47,0,0,1-.3-.1.51.51,0,0,1-.09-.71l21.48-27.8a.5.5,0,0,1,.79.61L260,143A.53.53,0,0,1,259.59,143.18Z" fill="#231f20"></path></g></svg>